<svg width="20" height="18" viewBox="0 0 20 18" fill="none" xmlns="http://www.w3.org/2000/svg">
<path d="M19.301 0C19.712 0 20 0.35219 20 0.745826C20 1.02475 19.855 1.32517 19.5029 1.53553C17.715 2.60207 15.645 6.28969 15.645 8.56467C18.661 8.46109 19.9709 11.4694 19.9709 13.3549C19.9709 15.6126 18.2329 18 15.663 18C12.4229 18 10.833 15.1346 10.833 12.0296C10.833 5.30183 17.667 0.000192751 19.3011 0.000192751L19.301 0ZM8.46808 0C8.87806 0 9.16703 0.35219 9.16703 0.745826C9.16703 1.02475 9.02205 1.32517 8.66998 1.53553C6.88202 2.60207 4.81199 6.28969 4.81199 8.56467C7.82805 8.46109 9.13797 11.4694 9.13797 13.3549C9.13797 15.6126 7.39892 18 4.82999 18C1.58892 18 0 15.1346 0 12.0296C0 5.30183 6.83312 0.000192751 8.46812 0.000192751L8.46808 0Z" fill="#3480C1"/>
</svg>
