<svg width="36" height="40" viewBox="0 0 36 40" fill="none" xmlns="http://www.w3.org/2000/svg">
<path fill-rule="evenodd" clip-rule="evenodd" d="M7.47441 13.1906H28.6711V30.4639C28.6711 31.4889 27.8394 32.3223 26.8144 32.3223H24.6911V37.5823C24.696 38.2185 24.448 38.8306 24.0017 39.2841C23.5554 39.7376 22.9473 39.9953 22.3111 40.0006C21.9958 39.9984 21.684 39.9341 21.3935 39.8114C21.1031 39.6887 20.8396 39.5099 20.6183 39.2853C20.397 39.0607 20.222 38.7947 20.1036 38.5025C19.9851 38.2103 19.9253 37.8976 19.9277 37.5823V32.3223H16.2194V37.5823C16.2218 37.8976 16.1621 38.2103 16.0436 38.5025C15.9251 38.7947 15.7502 39.0607 15.5289 39.2853C15.3075 39.5099 15.0441 39.6887 14.7536 39.8114C14.4632 39.9341 14.1514 39.9984 13.8361 40.0006C13.5209 39.9982 13.2093 39.9337 12.919 39.8109C12.6288 39.6881 12.3655 39.5093 12.1444 39.2847C11.9232 39.0601 11.7484 38.7942 11.6301 38.5021C11.5117 38.21 11.452 37.8974 11.4544 37.5823V32.3223H9.33274C8.30774 32.3223 7.47441 31.4889 7.47441 30.4639V13.1906ZM3.32108 13.0489C1.99274 13.0489 0.916077 14.1423 0.916077 15.4923V25.0373C0.916077 26.3839 1.99274 27.4789 3.32108 27.4789C4.64941 27.4789 5.72608 26.3839 5.72608 25.0373V15.4923C5.72608 14.1423 4.64941 13.0489 3.32108 13.0489ZM28.6711 11.4489H7.47441C7.73608 8.43226 9.69608 5.83393 12.5161 4.32893L10.4994 1.36726C10.4307 1.27242 10.3818 1.16476 10.3555 1.05065C10.3292 0.936549 10.326 0.818325 10.3462 0.702986C10.3665 0.587646 10.4096 0.477539 10.4732 0.379186C10.5367 0.280834 10.6194 0.196238 10.7162 0.130411C10.8131 0.0645842 10.9221 0.0188652 11.037 -0.0040368C11.1518 -0.0269388 11.2701 -0.026558 11.3848 -0.00291685C11.4994 0.0207243 11.6082 0.0671448 11.7046 0.133594C11.8011 0.200044 11.8832 0.28517 11.9461 0.383929L14.1427 3.6106C16.689 2.72835 19.4581 2.72835 22.0044 3.6106L24.2011 0.383929C24.2656 0.289049 24.3483 0.207816 24.4442 0.144866C24.5402 0.0819173 24.6476 0.0384854 24.7604 0.0170505C24.8731 -0.00438432 24.989 -0.00340235 25.1013 0.0199404C25.2137 0.0432831 25.3204 0.0885294 25.4152 0.153096C25.5101 0.217663 25.5914 0.300285 25.6543 0.396246C25.7173 0.492207 25.7607 0.599626 25.7821 0.712372C25.8036 0.825118 25.8026 0.940982 25.7792 1.05335C25.7559 1.16571 25.7106 1.27238 25.6461 1.36726L23.6327 4.32726C26.4527 5.8306 28.4094 8.42726 28.6711 11.4489ZM14.7744 7.34893C14.7745 7.19506 14.7443 7.04268 14.6855 6.90049C14.6268 6.75829 14.5405 6.62907 14.4318 6.52019C14.3231 6.41131 14.194 6.32492 14.0519 6.26594C13.9098 6.20695 13.7574 6.17654 13.6036 6.17643C13.4497 6.17632 13.2973 6.20652 13.1551 6.2653C13.0129 6.32408 12.8837 6.41029 12.7748 6.51901C12.666 6.62774 12.5796 6.75684 12.5206 6.89895C12.4616 7.04106 12.4312 7.1934 12.4311 7.34726C12.4311 7.65801 12.5545 7.95603 12.7743 8.17576C12.994 8.39549 13.292 8.51893 13.6027 8.51893C13.9135 8.51893 14.2115 8.39549 14.4312 8.17576C14.651 7.95603 14.7744 7.65967 14.7744 7.34893ZM23.8644 7.34726C23.8644 7.03607 23.7408 6.73763 23.5207 6.51759C23.3007 6.29755 23.0023 6.17393 22.6911 6.17393C22.3799 6.17393 22.0814 6.29755 21.8614 6.51759C21.6414 6.73763 21.5177 7.03607 21.5177 7.34726C21.5177 7.65845 21.6414 7.95689 21.8614 8.17693C22.0814 8.39698 22.3799 8.5206 22.6911 8.5206C23.0023 8.5206 23.3007 8.39698 23.5207 8.17693C23.7408 7.95689 23.8644 7.65845 23.8644 7.34726ZM32.8277 13.0473C31.4994 13.0473 30.4211 14.1406 30.4211 15.4906V25.0389C30.4211 26.3889 31.4994 27.4823 32.8277 27.4823C34.1561 27.4823 35.2294 26.3873 35.2294 25.0389V15.4889C35.2294 14.1406 34.1561 13.0473 32.8277 13.0473Z" fill="white"/>
</svg>
