<svg width="32" height="36" viewBox="0 0 32 36" fill="none" xmlns="http://www.w3.org/2000/svg">
<path d="M26.1006 34.56C24.1406 36.46 22.0006 36.16 19.9406 35.26C17.7606 34.34 15.7606 34.3 13.4606 35.26C10.5806 36.5 9.06057 36.14 7.34057 34.56C-2.41943 24.5 -0.979427 9.18 10.1006 8.62C12.8006 8.76 14.6806 10.1 16.2606 10.22C18.6206 9.74 20.8806 8.36 23.4006 8.54C26.4206 8.78 28.7006 9.98 30.2006 12.14C23.9606 15.88 25.4406 24.1 31.1606 26.4C30.0206 29.4 28.5406 32.38 26.0806 34.58L26.1006 34.56ZM16.0606 8.5C15.7606 4.04 19.3806 0.36 23.5406 0C24.1206 5.16 18.8606 9 16.0606 8.5Z" fill="white"/>
</svg>
