<svg width="180" height="55" viewBox="0 0 180 55" fill="none" xmlns="http://www.w3.org/2000/svg">
<g clip-path="url(#clip0_1_728)">
<path d="M0.0784311 16.5712C-0.136558 15.8214 0.0784311 15.3377 0.880236 15.3377H2.53848C3.02044 15.3377 3.39491 15.602 3.49888 15.9254L7.4057 30.0459H7.45768L13.5012 15.3412C13.6087 15.0769 13.9276 14.8055 14.4096 14.8055H14.6739C15.1559 14.8055 15.4749 15.0698 15.5824 15.3412L21.5739 30.0997H21.6294L25.4798 15.9289C25.5847 15.6082 25.9591 15.3412 26.3891 15.3412H28.0447C28.8491 15.3412 29.0606 15.8214 28.8491 16.5747L23.0206 36.7309C22.9131 37.0516 22.5387 37.2657 22.1113 37.2657H21.8408C21.3624 37.2657 21.0399 37.0014 20.9324 36.7309L14.4122 20.6886L8.09913 36.7309C7.99163 36.9952 7.67267 37.2657 7.19071 37.2657H6.92638C6.44441 37.2657 6.12545 37.0516 6.01796 36.7309L0.0784311 16.5712Z" fill="white"/>
<path d="M33.667 2.93521C33.667 1.4902 34.7904 0.367675 36.1791 0.367675C36.5174 0.363292 36.8532 0.426716 37.1666 0.554206C37.4801 0.681696 37.7648 0.870669 38.004 1.10998C38.2433 1.34929 38.4321 1.63408 38.5595 1.94757C38.6869 2.26105 38.7502 2.59687 38.7457 2.93521C38.7457 4.32472 37.6223 5.44813 36.1791 5.44813C35.849 5.44836 35.5222 5.38351 35.2173 5.2573C34.9123 5.13108 34.6353 4.94598 34.402 4.71257C34.1686 4.47917 33.9836 4.20205 33.8575 3.89707C33.7314 3.59209 33.6667 3.26524 33.667 2.93521ZM34.416 16.3562C34.4246 16.0894 34.5345 15.836 34.7234 15.6474C34.9123 15.4588 35.166 15.3493 35.4328 15.3412H37.0875C37.3541 15.3497 37.6075 15.4594 37.7963 15.6479C37.9852 15.8363 38.0952 16.0896 38.1043 16.3562V35.7141C38.0955 35.981 37.9855 36.2345 37.7967 36.4233C37.6079 36.6121 37.3543 36.7221 37.0875 36.7309H35.4328C35.1657 36.7225 34.912 36.6127 34.7231 36.4238C34.5342 36.2349 34.4243 35.9811 34.416 35.7141V16.3562Z" fill="white"/>
<path d="M45.7011 16.3562C45.7097 16.0896 45.8196 15.8363 46.0083 15.6477C46.197 15.4592 46.4504 15.3496 46.7171 15.3412H47.7312C48.2132 15.3412 48.4801 15.5544 48.5876 15.9826L49.0696 17.6391C49.0696 17.6391 52.1165 14.8055 56.559 14.8055C62.762 14.8055 64.8475 18.8691 64.8475 24.4324V35.7106C64.8375 35.977 64.7272 36.2299 64.5386 36.4184C64.3501 36.607 64.0972 36.7173 63.8308 36.7274H62.1179C61.851 36.7186 61.5975 36.6086 61.4087 36.4198C61.2198 36.231 61.1099 35.9774 61.1011 35.7106V24.4324C61.1011 20.3679 59.2834 18.3889 56.2894 18.3889C52.2786 18.3889 49.3894 21.4367 49.3894 21.4367V35.7106C49.3815 35.9781 49.272 36.2325 49.0831 36.422C48.8942 36.6116 48.6401 36.722 48.3727 36.7309H46.7171C46.4502 36.7223 46.1966 36.6124 46.0079 36.4235C45.8192 36.2346 45.7095 35.981 45.7011 35.7141V16.3562Z" fill="white"/>
<path d="M73.6207 29.5648C73.6207 29.5648 71.9105 27.3727 71.9105 24.2174C71.9105 19.2436 75.3838 14.8055 80.948 14.8055H89.9846C90.1191 14.801 90.2531 14.8243 90.3783 14.8738C90.5034 14.9233 90.6171 14.998 90.7122 15.0933C90.8073 15.1885 90.8818 15.3023 90.9311 15.4276C90.9804 15.5528 91.0034 15.6869 90.9987 15.8214V16.7307C90.9987 17.1051 90.7864 17.5871 90.4119 17.6391L87.5228 18.2277C87.5228 18.2277 89.93 19.9899 89.93 24.2192C89.93 29.0864 86.454 33.3104 80.948 33.3104C77.524 33.3104 75.8658 31.9729 75.8658 31.9729C75.8658 31.9729 73.5132 33.0426 73.5132 35.1819C73.5132 36.5194 74.4745 37.8032 76.4552 37.8032H84.1534C88.6471 37.8032 92.1777 39.9954 92.1777 44.6476C92.1777 49.0848 87.5774 53.3106 81.1075 53.3106C73.9397 53.3106 70.8382 49.4593 70.8382 45.9296C70.8382 42.7224 73.4057 41.2774 73.9397 40.9567V40.7972C72.5519 40.4218 70.0373 39.035 70.0373 35.7158C70.0373 31.6469 73.6207 29.5648 73.6207 29.5648ZM81.052 49.8303C84.5834 49.8303 88.2189 47.8504 88.2189 44.7489C88.2189 44.0537 87.8973 41.273 84.1534 41.273H78.2174C78.2174 41.273 74.6375 42.2387 74.6375 45.3921C74.6375 47.9606 77.4165 49.8329 81.052 49.8329V49.8303ZM86.3483 24.1117C86.3483 20.5811 84.2107 18.1202 81.0017 18.1202C77.7416 18.1202 75.3856 20.5793 75.3856 24.1117C75.3856 27.644 77.7408 30.1032 81.0017 30.1032C84.209 30.0997 86.3483 27.6396 86.3483 24.1117Z" fill="white"/>
<path d="M96.725 16.3562C96.7341 16.0896 96.8441 15.8364 97.0329 15.6479C97.2218 15.4594 97.4752 15.3498 97.7418 15.3412H98.7577C99.2397 15.3412 99.5076 15.5544 99.615 15.9826L100.093 17.6373C100.093 17.6373 102.608 14.8037 107.045 14.8037C110.199 14.8037 112.499 16.0373 113.89 18.2797C114.154 18.0664 117.582 14.8037 121.859 14.8037C128.062 14.8037 130.147 18.8674 130.147 24.4307V35.7088C130.138 35.9757 130.028 36.2292 129.84 36.418C129.651 36.6068 129.397 36.7168 129.13 36.7256H127.42C127.153 36.7166 126.9 36.6065 126.711 36.4177C126.523 36.229 126.413 35.9755 126.404 35.7088V24.4307C126.404 20.4181 124.693 18.3872 121.592 18.3872C118.116 18.3872 115.816 20.6868 115.066 21.3829C115.243 22.3897 115.332 23.4102 115.33 24.4324V35.7106C115.322 35.9776 115.212 36.2314 115.023 36.4203C114.834 36.6092 114.581 36.719 114.314 36.7274H112.605C112.338 36.7186 112.085 36.6086 111.896 36.4198C111.707 36.231 111.597 35.9774 111.588 35.7106V24.4324C111.588 20.3679 109.771 18.3889 106.51 18.3889C102.714 18.3889 100.413 21.4367 100.413 21.4367V35.7106C100.405 35.9773 100.295 36.2307 100.106 36.4195C99.9175 36.6083 99.6641 36.7183 99.3974 36.7274H97.7392C97.4723 36.7186 97.2188 36.6086 97.03 36.4198C96.8411 36.231 96.7312 35.9774 96.7224 35.7106L96.725 16.3562Z" fill="white"/>
<path d="M144.488 23.1486C146.789 23.1486 149.033 23.8429 149.033 23.8429C149.086 19.8859 148.606 18.0682 145.557 18.0682C143.365 18.0834 141.193 18.4812 139.139 19.2436C138.605 19.4594 138.285 19.1907 138.126 18.7096L137.696 17.373C137.484 16.7315 137.803 16.4108 138.285 16.1967C138.605 16.0372 141.706 14.8063 145.716 14.8063C151.174 14.8063 152.51 17.588 152.51 23.8438V35.7141C152.501 35.9809 152.391 36.2345 152.202 36.4233C152.013 36.6121 151.76 36.7221 151.493 36.7309H150.477C149.89 36.7309 149.727 36.4101 149.568 35.9291L149.14 34.4849C148.017 35.6083 145.824 37.2657 142.511 37.2657C138.767 37.2657 135.933 34.5387 135.933 30.2609C135.933 26.1964 138.979 23.1486 144.488 23.1486ZM143.098 34.0576C145.772 34.0576 148.071 32.3994 148.981 31.0618V26.8378C148.339 26.4634 146.841 25.9831 144.487 25.9831C141.491 25.9831 139.353 27.481 139.353 30.2609C139.354 32.3994 140.801 34.0576 143.098 34.0576Z" fill="white"/>
<path d="M159.947 16.3562C159.956 16.0897 160.066 15.8366 160.255 15.6482C160.443 15.4597 160.696 15.35 160.963 15.3412H161.98C162.462 15.3412 162.729 15.5544 162.836 15.9826L163.315 17.6391C163.315 17.6391 166.365 14.8055 170.805 14.8055C177.008 14.8055 179.092 18.8691 179.092 24.4324V35.7106C179.084 35.9771 178.975 36.2305 178.787 36.4193C178.599 36.6082 178.346 36.7183 178.079 36.7274H176.365C176.099 36.7183 175.845 36.6083 175.657 36.4195C175.468 36.2307 175.358 35.9773 175.35 35.7106V24.4324C175.35 20.3679 173.532 18.3889 170.538 18.3889C166.527 18.3889 163.641 21.4367 163.641 21.4367V35.7106C163.632 35.9774 163.522 36.231 163.333 36.4198C163.144 36.6086 162.891 36.7186 162.624 36.7274H160.966C160.699 36.7183 160.445 36.6083 160.257 36.4195C160.068 36.2307 159.958 35.9773 159.95 35.7106L159.947 16.3562Z" fill="white"/>
</g>
<defs>
<clipPath id="clip0_1_728">
<rect width="180" height="54.265" fill="white" transform="translate(0 0.367676)"/>
</clipPath>
</defs>
</svg>
